<svg id="Layer_1" data-name="Layer 1" xmlns="http://www.w3.org/2000/svg" viewBox="0 0 169.38 157.25"><defs><style>.cls-1{fill:#233a54;}.cls-2{fill:#5f9cd4;}.cls-3{fill:#4178bc;}.cls-4{fill:#add0ee;}</style></defs><title>casas</title><polygon class="cls-1" points="153.26 55.79 146.18 59.88 146.22 73.98 153.32 78.11 153.26 55.79"/><polygon class="cls-2" points="153.26 55.79 153.32 78.11 169.38 68.83 169.25 23.79 133.61 44.37 130.06 46.42 130.11 64.62 130.18 91.47 146.24 82.2 146.22 73.98 146.18 59.88 153.26 55.79"/><polygon class="cls-3" points="130.06 46.42 112.33 36.12 89.11 22.63 89.24 67.67 130.18 91.47 130.11 64.62 130.06 46.42"/><polygon class="cls-4" points="130.06 46.42 133.61 44.37 169.25 23.79 128.31 0 89.11 22.63 112.33 36.12 130.06 46.42"/><polygon class="cls-1" points="64.15 56.48 57.06 60.58 57.1 74.67 64.21 78.8 64.15 56.48"/><polygon class="cls-2" points="64.15 56.48 64.21 78.8 80.27 69.53 80.14 24.48 44.49 45.06 40.94 47.12 40.99 65.31 41.07 92.16 57.13 82.89 57.1 74.67 57.06 60.58 64.15 56.48"/><polygon class="cls-3" points="40.94 47.12 23.21 36.81 0 23.32 0.13 68.36 41.07 92.16 40.99 65.31 40.94 47.12"/><polygon class="cls-4" points="40.94 47.12 44.49 45.06 80.14 24.48 39.2 0.69 0 23.32 23.21 36.81 40.94 47.12"/><polygon class="cls-1" points="133.66 107.21 126.58 111.3 126.62 125.39 133.72 129.52 133.66 107.21"/><polygon class="cls-2" points="133.66 107.21 133.72 129.52 149.78 120.25 149.66 75.21 114.01 95.79 110.46 97.84 110.51 116.03 110.58 142.88 126.64 133.61 126.62 125.39 126.58 111.3 133.66 107.21"/><polygon class="cls-3" points="110.46 97.84 92.73 87.54 69.52 74.05 69.64 119.09 110.58 142.88 110.51 116.03 110.46 97.84"/><polygon class="cls-4" points="110.46 97.84 114.01 95.79 149.66 75.21 108.71 51.41 69.52 74.05 92.73 87.54 110.46 97.84"/><polygon class="cls-1" points="80.21 121.58 73.12 125.67 73.16 139.76 80.27 143.89 80.21 121.58"/><polygon class="cls-2" points="80.21 121.58 80.27 143.89 96.33 134.62 96.2 89.58 60.55 110.16 57 112.21 57.05 130.4 57.13 157.25 73.19 147.98 73.16 139.76 73.12 125.67 80.21 121.58"/><polygon class="cls-3" points="57 112.21 39.27 101.9 16.06 88.41 16.19 133.46 57.13 157.25 57.05 130.4 57 112.21"/><polygon class="cls-4" points="57 112.21 60.55 110.16 96.2 89.58 55.26 65.78 16.06 88.41 39.27 101.9 57 112.21"/></svg>