<?xml version="1.0" encoding="utf-8"?>
<!-- Generator: Adobe Illustrator 22.0.1, SVG Export Plug-In . SVG Version: 6.00 Build 0)  -->
<svg version="1.1" id="Layer_1" xmlns="http://www.w3.org/2000/svg" xmlns:xlink="http://www.w3.org/1999/xlink" x="0px" y="0px"
	 viewBox="0 0 662.2 118" style="enable-background:new 0 0 662.2 118;" xml:space="preserve">
<style type="text/css">
	.st0{fill:#FFFFFF;}
</style>
<g>
	<polygon class="st0" points="283.2,65.2 283.2,65.2 283.2,65.2 	"/>
	<path class="st0" d="M152,99C152,99,152,99,152,99C152,99,152,99,152,99z"/>
	<path class="st0" d="M325.2,62.3C325.2,62.3,325.2,62.3,325.2,62.3C325.2,62.3,325.2,62.3,325.2,62.3
		C325.2,62.3,325.2,62.3,325.2,62.3z"/>
	<path class="st0" d="M350.9,60.2C350.9,60.2,350.9,60.2,350.9,60.2C350.9,60.2,350.9,60.2,350.9,60.2z"/>
	<path class="st0" d="M447.8,45.5C447.8,45.5,447.8,45.5,447.8,45.5C447.8,45.5,447.8,45.5,447.8,45.5z"/>
	<path class="st0" d="M267.9,69.5c-1.2,0.4-2.5,0.8-3.7,1.2c-0.5,0.1-0.9,0.2-1.4,0.3c0.1-2.4,0-4.9-0.4-7.3c-0.5-3-1.3-5.9-2.6-8.6
		c-1.2-2.8-2.8-5.4-5-7.8c-1.1-1.1-2.4-2.3-4.1-3.1c-1.7-0.8-3.7-1.3-5.7-1c-0.3,0-0.6,0.1-0.9,0.2c0,0,0,0-0.1,0
		c-1.5-0.2-2.9-0.3-4.3-0.2c-1.5,0.1-2.9,0.3-4.3,0.8c-2.8,0.9-5.2,2.5-7.3,4.5c-4.1,4-6.7,9.4-7.9,15c-1.2,5.6-1,11.5,0.7,17.2
		c0.9,2.8,2.1,5.5,3.8,8c1.7,2.4,3.9,4.7,6.5,6.3c0.3,0.2,0.7,0.4,1.1,0.6c-0.5,0.2-1,0.5-1.4,0.6c-4.5,1.8-9.7,1.4-13.3-1.3
		c-0.4-0.3-0.9-0.7-1.3-1.1c-0.4-0.4-0.8-0.8-1.1-1.2c-0.6-0.8-1.2-1.8-1.6-3c-0.9-2.2-1.5-4.8-2-7.4c-0.9-5.2-1.3-10.6-1.4-16.1
		L210,62c0-1.3,0-2.9-0.2-4.5c-0.2-1.6-0.7-3.2-1.4-4.7c-0.8-1.5-1.9-3.1-3.7-4.1c-1.7-1-3.9-1.3-5.7-0.9c-0.9,0.2-1.7,0.5-2.5,0.8
		c-0.8,0.4-1.5,0.8-2.2,1.3c-2.6,1.8-4.5,3.9-6.4,6.1c-2.8,3.3-5.3,6.8-7.5,10.4c-0.2-2.8-0.5-5.6-1.3-8.4c-0.4-1.4-0.9-2.9-1.6-4.3
		c-0.7-1.4-1.8-2.8-3.4-3.8c-0.8-0.5-1.8-0.8-2.7-0.9c-1-0.1-1.8,0-2.7,0.2c-1.7,0.4-3.2,1.4-4.4,2.4c-2.3,2.1-3.9,4.6-5.3,7.1
		c-1.4,2.5-2.6,5.1-3.7,7.6c-0.4,1-0.8,1.9-1.2,2.9c-0.1-0.8-0.2-1.6-0.4-2.4c-1-5.5-2.3-10.9-4-16.2l0,0l-0.4-1.2l-0.6,1.2
		c-2,4.2-4,8.4-6.2,12.4c-1.1,2-2.2,4-3.4,5.9c-1.2,1.9-2.5,3.7-3.8,5.3c-0.7,0.8-1.4,1.4-2.1,1.9c-0.3,0.2-0.8,0.5-1.2,0.7
		c-0.4,0.2-0.9,0.4-1.4,0.6c-1,0.4-1.9,0.6-2.9,0.8c-0.1-0.4-0.1-0.8-0.2-1.2l-1,0.1c0,0.4-0.1,0.8-0.1,1.3c-0.3,0-0.6,0-0.9,0
		c0.1-0.5,0.2-1,0.3-1.6c0.4-2.4,0.4-4.9-0.4-7.3c-0.4-1.2-0.9-2.3-1.4-3.4c-0.6-1.1-1.2-2.1-1.9-3.1c-0.7-1-1.6-1.9-2.5-2.7
		c-1-0.8-2.1-1.5-3.5-1.9c-1.4-0.4-3-0.2-4.3,0.5c-0.6,0.3-1.2,0.7-1.7,1.2c-0.5,0.4-0.9,1-1.3,1.6c-0.7,1.2-1.2,2.5-1.3,3.8
		c-0.1,1.3,0.1,2.6,0.4,3.9c0.7,2.4,1.9,4.6,3.6,6.5l0,0c0.7,1.1,1.6,2,2.6,2.9c1,0.8,2.1,1.6,3.2,2.1c1.2,0.7,2.6,1.2,4,1.6
		c-0.5,0.9-1,1.8-1.7,2.5c-0.3,0.4-0.7,0.7-1.1,1c-0.4,0.3-0.9,0.6-1.2,0.8l1.3,2.5c1.2-0.8,2.1-1.6,2.9-2.5c0.9-0.9,1.5-2,2.1-3.1
		c0.1-0.2,0.2-0.4,0.3-0.6c0.3,0,0.5,0.1,0.8,0.1c0.4,0,0.8,0.1,1.3,0.1c-0.2,1.1-0.4,2.2-0.6,3.3c-0.7,3-1.6,6-3,8.8
		c-1.3,2.7-2.8,5.3-4.7,7.6c-1.9,2.2-4.1,4.2-6.5,5.6c-4.8,2.9-10.5,3.5-15.6,1.4c-2.5-1-4.9-2.7-6.9-4.7c-2-2-3.7-4.5-5.1-7
		c-2.7-5.2-4.1-11.3-4.1-17.3c-0.1-3,0.3-6.1,0.9-9c0.6-3,1.7-5.8,3-8.6c1.3-2.7,3.1-5.2,5.2-7.4c2.1-2.1,4.6-3.9,7.4-5
		c0.7-0.3,1.4-0.6,2.1-0.7c0.7-0.2,1.5-0.4,2.2-0.5c0.7-0.1,1.5-0.2,2.3-0.2c0.8,0,1.5,0,2.3,0.1c3.1,0.3,6.1,1.3,8.8,3l0.3-0.4
		l0.4-0.3c-1-1.2-2.2-2-3.5-2.7c-1.3-0.7-2.6-1.2-4-1.7c-2.8-0.8-5.7-1.2-8.6-1.1c-2.9,0.1-5.7,0.3-8.6,0.8
		c-2.9,0.5-5.7,1.5-8.4,2.8c-2.7,1.3-5.1,3-7.3,4.9c-2.2,1.9-4.2,4.1-6.1,6.3c-0.9,1.1-1.8,2.3-2.6,3.4L62.7,68
		c-1.5,2.3-3.1,4.5-4.7,6.7c-3.3,4.3-6.8,8.4-10.8,12c-3.9,3.5-8.3,6.4-13,7.8c-2.3,0.7-4.7,1-7,0.9c-2.3-0.2-4.6-0.7-6.7-1.8
		c-4.3-1.9-7.4-5.5-9.4-9.9c-1-2.2-1.7-4.6-2.2-7.1c-0.5-2.5-0.7-5-0.8-7.6C8.1,63.8,8.8,58.6,10,53.5c1.3-5.1,3.2-10.1,5.5-14.8
		c2.3-4.8,5.1-9.3,8.3-13.5c3.2-4.2,6.8-8,10.9-11.3c4.1-3.2,8.6-5.9,13.4-7.4c2.4-0.7,4.9-1.2,7.4-1.2c2.5,0,5,0.5,7.3,1.4
		c2.3,0.9,4.5,2.4,6.4,4.2c1.9,1.8,3.5,4,4.9,6.4l0.9-0.4c-0.8-2.7-2.1-5.4-3.8-7.8c-1.7-2.4-4-4.5-6.7-6C62,1.6,59,0.6,55.9,0.2
		c-3.1-0.4-6.2-0.2-9.2,0.4c-6,1.2-11.5,4-16.4,7.4c-4.9,3.4-9.2,7.6-12.9,12.2C10,29.3,4.9,40.1,2,51.5c-1.4,5.7-2.2,11.7-2,17.7
		c0.1,6,1.2,12.1,4,17.8c1.3,2.8,3.2,5.6,5.4,7.9c2.2,2.4,5.1,4.3,8,5.5c2.9,1.3,6.2,2.1,9.4,2.2c3.3,0.1,6.5-0.4,9.5-1.5
		c3-1,5.7-2.5,8.2-4.2c2.5-1.7,4.8-3.6,6.9-5.6c4.2-4.1,7.8-8.6,11.1-13.3c1.6-2.4,3.1-4.8,4.6-7.2l2.1-3.5c0.7-1.1,1.5-2.2,2.3-3.3
		c1.6-2.1,3.3-4.2,5.2-6.1c1.9-1.8,4-3.5,6.2-4.8c1.7-1,3.6-1.8,5.5-2.5c-1,0.6-1.9,1.3-2.8,2.1c-2.6,2.3-4.9,5-6.6,8.1
		c-1.8,3-3.1,6.2-4,9.6c-0.9,3.3-1.4,6.8-1.6,10.3c-0.2,6.9,1.1,14,4.2,20.4c1.6,3.2,3.6,6.2,6.1,8.8c2.5,2.6,5.6,4.9,9.1,6.3
		c3.5,1.5,7.4,2.1,11.2,1.7c3.8-0.4,7.5-1.8,10.5-3.8c3.1-2,5.7-4.7,7.7-7.6c2-2.9,3.5-6.2,4.5-9.5c1-3.3,1.6-6.7,1.7-10.1
		c0-0.8,0.1-1.7,0-2.5l-0.1-1.4c1.4-0.2,2.7-0.5,4-1c0.6-0.2,1.2-0.5,1.8-0.8c0.6-0.3,1.1-0.6,1.8-1.1c1.2-0.9,2.1-1.9,2.9-2.9
		c1.6-2,2.8-4.1,3.9-6.2c1.1-2.1,2-4.3,2.9-6.5c1.4-3.7,2.5-7.4,3.4-11.3c0.9,4.6,1.8,9.3,2.4,14c0.3,2.6,0.6,5.2,0.6,7.7
		c-0.7,2.5-1.2,5.1-1.6,7.7c-0.5,2.8-0.8,5.5-1.1,8.3c-0.1,1.4-0.2,2.8-0.3,4.2c0,0.7-0.1,1.4-0.1,2.1c0,0.4,0,0.7,0,1.1
		c0,0.4,0,0.7,0.1,1.3c0.1,0.2,0,0.2,0.3,0.8c-0.2,0.3,1.7,1,2.1,0.4c0.5-0.4,0.3-0.3,0.5-0.5c0.3-0.4,0.3-0.6,0.4-0.9
		c0.1-0.4,0.2-0.8,0.3-1.2c0.1-0.7,0.2-1.4,0.3-2.1c0.2-1.4,0.3-2.8,0.4-4.2l0.7-8.3l0.4-4.1c0-0.1,0-0.2,0-0.3
		c0.3-1.4,0.7-2.7,1-4.1c0.4-1.3,0.8-2.6,1.3-3.8c0.5-1.2,1.1-2.5,1.6-3.7c1.1-2.5,2.3-4.9,3.6-7.3c1.3-2.3,2.8-4.5,4.6-6.1
		c0.9-0.8,1.9-1.3,2.8-1.5c0.5-0.1,1-0.1,1.4-0.1c0.4,0.1,0.8,0.2,1.2,0.4c0.8,0.5,1.4,1.3,2,2.4c0.5,1,0.9,2.3,1.2,3.5
		c0.6,2.5,0.9,5.2,1,7.8c0.1,2.3,0.1,4.7,0,7c0,0.1,0,0.1-0.1,0.2c-0.6,1.3-1.1,2.7-1.5,4.1c-0.9,2.8-1.5,5.5-1.8,8.6
		c0,0.4-0.1,0.8,0,1.2c0,0.2,0,0.5,0.1,0.8c0,0.2,0.1,0.3,0.1,0.6c0,0.1,0.1,0.3,0.2,0.5c0.1,0.2,0.3,0.5,0.7,0.8
		c0.5,0.4,1.4,0.5,1.9,0.4c0.6-0.2,0.7-0.3,0.9-0.5c0.2-0.1,0.3-0.3,0.4-0.3c0.1-0.1,0.2-0.2,0.2-0.3c0.2-0.3,0.3-0.5,0.4-0.7
		c0.2-0.4,0.4-0.8,0.5-1.1c0.6-1.5,0.9-3,1.1-4.4c0.5-2.6,0.7-5.2,0.9-7.8c0,0,0,0,0-0.1c0.5-1.2,1.1-2.3,1.8-3.5
		c2.6-4.7,5.7-9.2,9.2-13.2c1.7-2,3.6-3.9,5.6-5.3c0.5-0.3,1-0.6,1.4-0.8c0.5-0.2,1-0.4,1.4-0.4c0.9-0.2,1.7,0,2.3,0.4
		c1.4,0.8,2.4,3,2.7,5.3c0.2,1.2,0.2,2.3,0.1,3.8l0,4.2c0,5.6,0.1,11.3,1,17c0.5,2.9,1.1,5.7,2.3,8.6c0.6,1.4,1.4,2.9,2.5,4.2
		c0.6,0.7,1.1,1.3,1.7,1.8c0.6,0.6,1.3,1,1.9,1.5c2.7,1.9,5.9,2.9,9.1,3.1c3.2,0.2,6.4-0.5,9.2-1.8c1.9-0.8,3.6-1.9,5.2-3.2
		c0.8,0.1,1.6,0.2,2.3,0.2c3.2,0.1,6.4-0.7,9.2-2.3c2.8-1.5,5.1-3.6,7-6c1.9-2.4,3.3-5.1,4.4-7.9c0.5-1.2,0.8-2.5,1.1-3.8
		c1.3-0.2,2.7-0.5,4-0.9c1.4-0.4,2.8-0.8,4.2-1.3c1.4-0.5,2.7-1,4.1-1.7l-2.7-5.8C270.4,68.5,269.1,69.1,267.9,69.5z M116.2,75.7
		c-0.9-0.5-1.7-1.1-2.6-1.8l0,0c-1.4-1.6-2.4-3.4-3-5.3c-0.5-1.9-0.5-3.9,0.5-5.4c0.5-0.7,1.2-1.4,2-1.8c0.7-0.4,1.5-0.5,2.3-0.3
		c1.7,0.4,3.3,1.9,4.5,3.5c0.6,0.8,1.2,1.7,1.7,2.7c0.5,0.9,1,1.9,1.3,2.9c0.6,1.9,0.6,4.1,0.3,6.1c-0.1,0.6-0.2,1.2-0.4,1.7
		c-1.3-0.2-2.6-0.6-3.9-1C118,76.6,117.1,76.2,116.2,75.7z M152,99C152,99,152,99,152,99C152,99,152,99,152,99z M256.9,64.7
		c0.4,2.3,0.6,4.8,0.4,7.2c-0.2,0-0.5,0-0.7,0c-1.4,0.1-2.8-0.1-4.1-0.4c0.6-2.3,1.1-4.6,1.4-7c0.1-0.7,0.1-1.4,0.2-2.1l0.1-2.1
		c0.1-1.1,0.1-2.1,0.1-3.2c0.1,0.1,0.1,0.2,0.2,0.4C255.7,59.7,256.5,62.2,256.9,64.7z M243,52.6c0.2-1,0.6-1.9,1.1-2.5
		c0.5-0.6,0.9-0.8,1.6-0.9c0.7-0.1,1.5,0,2.4,0.4c0.8,0.4,1.7,1.1,2.5,1.9c0.6,0.6,1.1,1.2,1.6,1.9c0.2,0.9,0.3,1.8,0.3,2.8
		c0,1.3-0.1,2.7-0.2,4l-0.2,2.1c-0.1,0.7-0.2,1.3-0.3,2c-0.4,2.2-1,4.3-1.7,6.4c-0.2-0.1-0.3-0.2-0.5-0.3c-0.2-0.1-0.5-0.3-0.7-0.5
		c-0.5-0.4-0.9-0.7-1.4-1.1c-0.8-0.8-1.6-1.6-2.2-2.6c-1.2-1.8-1.9-4.1-2.4-6.6C242.6,57.1,242.5,54.7,243,52.6z M233.5,91.2
		c-4.3-2.4-7.5-6.8-9.3-11.6c-1.9-4.9-2.4-10.4-1.6-15.6c0.8-5.3,3-10.4,6.7-14.2c1.9-1.9,4.1-3.4,6.6-4.2c1.2-0.4,2.6-0.7,3.9-0.7
		c0.4,0,0.9,0,1.4,0c-0.6,0.4-1.2,0.9-1.6,1.5c-1.3,1.6-2,3.3-2.4,4.9c-0.8,3.3-0.6,6.5-0.2,9.5c0.5,3,1.4,6.1,3.2,8.9
		c0.9,1.4,2,2.7,3.2,3.8c0.6,0.5,1.2,1.1,1.8,1.5c0.3,0.2,0.6,0.5,1,0.7c0.4,0.2,0.8,0.5,1.2,0.7c0.2,0.1,0.3,0.2,0.5,0.2
		c-1.5,3.5-3.4,6.8-5.5,9.8c-1.5,2.2-3.2,4.2-5.1,5.9c-0.1,0.1-0.3,0.2-0.4,0.3C235.6,92.3,234.5,91.8,233.5,91.2z M247,91.2
		c-1.4,0.8-3,1.4-4.6,1.7c1.1-1.4,2.2-2.9,3.1-4.4c2.1-3.5,3.8-7.1,5.2-10.9c1.9,0.5,3.8,0.7,5.6,0.6c-0.1,0.5-0.3,1-0.5,1.5
		C254.2,84.5,251.2,88.8,247,91.2z"/>
	<path class="st0" d="M357.7,67l-0.1-0.9l0-0.9c0-0.7-0.1-1.4-0.2-2.1c-0.3-1.4-0.7-2.9-1.6-4.2c-0.5-0.7-1-1.3-1.8-1.9
		c-0.4-0.3-0.8-0.5-1.2-0.7c-0.2-0.1-0.4-0.2-0.7-0.3c-0.3-0.1-0.7-0.2-1-0.2c-1.4,0-2.4,0.6-3.1,1c-0.7,0.5-1.3,1-1.8,1.6
		c-1,1.1-1.8,2.2-2.5,3.3c-1.4,2.2-2.6,4.6-3.7,6.8c-2.3,4.4-4.7,8.7-7.2,13c-0.6,1-1.3,2.1-2,3.1c-0.2,0.3-0.4,0.6-0.6,0.9
		c-0.1-0.4-0.1-0.7-0.2-1.1c-0.6-4.9-1-9.9-1.6-14.9c-0.1-1.3-0.3-2.5-0.5-3.8c-0.2-1.3-0.4-2.5-0.8-4c-0.1-0.4-0.3-0.8-0.5-1.2
		c-0.2-0.4-0.6-1-1.3-1.6c-0.2-0.1-0.4-0.2-0.6-0.3c-0.2-0.1-0.5-0.2-0.8-0.2c-0.2,0-0.5,0-0.7,0c-0.2,0-0.3,0.1-0.5,0.1
		c-0.1,0.1-0.2,0.1-0.3,0.2c-0.3,0.2-0.5,0.4-0.6,0.5c-0.1,0.1-0.2,0.2-0.3,0.3c-0.3,0.4-0.5,0.7-0.7,1c-0.7,1.2-1.3,2.3-1.9,3.5
		c-2.3,4.5-4.4,8.9-7.1,12.9c-2.7,3.9-6,7.6-10,9.7c-2,1-4.2,1.6-6.3,1.4c-1-0.1-2.2-0.4-2.8-0.8c-0.7-0.5-1.4-1.2-1.9-2.2
		c-1-1.9-1.5-4.3-1.8-6.6c-0.3-2.4-0.3-4.8-0.1-7.2c0-0.3,0.1-0.6,0.1-0.8c2.6-0.2,5.1-1,7.4-2.1c2.3-1.2,4.5-2.5,6.6-4.1
		c2.1-1.5,4.1-3.3,5.6-5.4c0.8-1.1,1.4-2.3,1.8-3.8c0.2-0.7,0.2-1.5,0.2-2.2c-0.1-0.8-0.3-1.5-0.6-2.2c-0.6-1.3-1.6-2.5-2.9-3.3
		c-1.3-0.8-2.8-1.1-4.3-1c-1.4,0.1-2.8,0.5-4,1.1c-0.6,0.3-1.2,0.6-1.8,1c-0.6,0.4-1.1,0.9-1.6,1.3c-1.9,1.9-3.3,4.2-4.5,6.4
		c-1.2,2.3-2.2,4.7-3.1,7.1c-0.4,1.2-0.8,2.5-1.1,3.8c-0.4-0.1-0.8-0.2-1.2-0.4c-0.1,0-0.2-0.1-0.3-0.1l0.7-0.6l-3.5-3.5l-2.3,2.8
		l-1.6,1.9l1.9,1.3l0,0c0.5,0.3,0.7,0.4,1.1,0.6c0.3,0.1,0.7,0.3,1,0.4c0.7,0.2,1.4,0.4,2.1,0.6c0.5,0.1,1.1,0.2,1.6,0.2
		c0,0.2-0.1,0.4-0.1,0.6c-0.2,2.6-0.3,5.2-0.1,7.8c0.2,2.6,0.7,5.3,2,7.8c0.7,1.3,1.6,2.5,2.9,3.5c0.7,0.5,1.5,0.8,2.2,1
		c0.7,0.2,1.4,0.4,2.1,0.4c2.9,0.3,5.8-0.4,8.2-1.6c2.5-1.2,4.6-2.9,6.5-4.7c1.9-1.8,3.6-3.9,5.1-6c3-4.3,5.3-8.8,7.7-13.2
		c0.1-0.2,0.3-0.5,0.4-0.7c0.1,0.4,0.1,0.7,0.1,1.1c0.2,1.2,0.3,2.4,0.4,3.7c0.5,4.9,0.8,9.9,1.4,15c0.2,1.3,0.3,2.5,0.6,4
		c0.1,0.4,0.2,0.7,0.3,1.2c0.1,0.2,0.2,0.5,0.3,0.8c0.1,0.2,0.2,0.3,0.4,0.6c0.2,0.2,0.5,0.6,1.1,0.8c0.8,0.3,1.5,0.2,1.8,0
		c0.2-0.1,0.3-0.1,0.4-0.2c0.1-0.1,0.2-0.1,0.3-0.2c0.3-0.2,0.5-0.4,0.7-0.5c0.3-0.3,0.6-0.6,0.8-0.9c0.9-1.1,1.7-2.2,2.4-3.3
		c0.7-1.1,1.4-2.2,2.1-3.2c2.6-4.3,5.1-8.8,7.4-13.3l1.7-3.3c0.6-1.1,1.1-2.1,1.7-3.1c0.6-1,1.3-2,2-2.7c0.3-0.4,0.7-0.7,1-1
		c0.2-0.2,0.4-0.2,0.4-0.3c0,0,0,0,0,0c0.1,0.1,0.3,0.1,0.4,0.2c0.3,0.2,0.6,0.5,0.8,0.8c0.5,0.7,0.9,1.6,1.2,2.7
		c0.1,0.5,0.3,1,0.3,1.6l0.1,0.9l0.1,1c0.2,1.3,0.4,2.5,0.7,3.7c1,4.9,2.1,9.8,3.5,14.7l1-0.2c-0.3-5-0.8-10-1.2-15L357.7,67z
		 M283.2,65.2L283.2,65.2C283.2,65.2,283.2,65.2,283.2,65.2L283.2,65.2z M293.4,57.5c1.1-2.1,2.4-4.2,4-5.9c0.4-0.4,0.8-0.7,1.2-1.1
		c0.5-0.3,1-0.6,1.5-0.9c1-0.5,2.1-0.9,3.1-0.9c1.1-0.1,2.1,0.1,2.9,0.6c0.9,0.5,1.5,1.3,2,2.3c1,1.8,0.3,4-1.1,5.9
		c-1.3,1.9-3.1,3.5-5.1,5c-1.9,1.4-4.1,2.7-6.3,3.7c-1.9,0.8-3.9,1.3-5.9,1.3C290.5,64.1,291.8,60.6,293.4,57.5z M325.2,62.3
		C325.2,62.3,325.2,62.3,325.2,62.3C325.2,62.3,325.2,62.3,325.2,62.3C325.2,62.3,325.2,62.3,325.2,62.3z M350.9,60.2
		C350.9,60.2,350.9,60.2,350.9,60.2C350.9,60.2,350.9,60.2,350.9,60.2z"/>
	<path class="st0" d="M543.9,104.8c-0.4-0.3-0.9-0.8-1.2-1.2c-0.7-0.9-1.4-1.9-2-2.9c-1.2-2.1-2-4.4-2.8-6.7
		c-1.5-4.6-2.7-9.5-3.7-14.3c-0.5-2.4-1-4.9-1.5-7.3c-0.5-2.4-1-4.9-1.4-7.4l-1.8-9.8c0-0.3,0-0.5,0-0.8c-0.1-0.8-0.2-1.5-0.3-2.3
		c-0.1-0.4-0.2-0.8-0.3-1.2l-0.2-0.6c-0.1-0.2-0.1-0.4-0.2-0.7l0,0l-5.9,1.6c0.2,1.3,0.5,2.6,0.8,3.9c0.1,1.1,0.1,2.2,0.1,3.4
		c0,1.2-0.2,2.4-0.4,3.7c-0.2,1.2-0.5,2.5-0.8,3.4c-0.7,2.1-2,4.2-3.5,6.2c-1.5,2-3.2,3.9-5.1,5.6c-3.7,3.5-8,6.5-12.5,8.8
		c-0.6,0.3-1.1,0.5-1.7,0.8c-0.6,0.3-1.2,0.5-1.7,0.7l-0.9,0.3l-0.4,0.2c-0.1,0-0.2,0.1-0.4,0.1c-0.5,0.2-0.9,0.2-1.4,0.3
		c-0.9,0.1-1.5-0.1-2.2-0.6c-0.6-0.4-1.2-1.2-1.7-2.1c-0.5-0.9-0.8-2-1.1-3.2c-0.2-1.2-0.4-2.4-0.5-3.6c-0.1-2.5,0.1-5,0.5-7.6
		c0.2-1.5,0.6-2.9,0.9-4.3c4.1-2,8.1-4.2,12.1-6.4l-0.5-0.9c-3.7,1.9-7.4,3.8-11.2,5.6c0.9-2.9,2.2-5.8,3.7-8.4
		c1.3-2.2,2.7-4.3,4.5-5.9c1.8-1.6,3.9-2.7,6.3-2.9c2.4-0.2,4.8,0.4,7.1,1.5c2.3,1.1,4.5,2.7,6.4,4.4l0.8-0.7
		c-1.7-2.2-3.8-4-6.2-5.6c-2.4-1.5-5.2-2.6-8.3-2.6c-3.1,0-6.1,1.2-8.4,3.1c-2.4,1.8-4.1,4.2-5.7,6.6c-2.5,4-4.4,8.4-5.6,12.9
		c-3.2,1.4-6.5,2.7-9.8,4.2c-0.4-1.5-0.8-2.9-1.2-4.3c1.8-1.8,3.3-3.9,4.3-6.4c1.2-3,1.3-6.3,0.7-9.4c-0.6-3.1-2-6-4-8.4
		c-1.1-1.2-2.2-2.3-4-3.1c-0.4-0.2-1-0.3-1.5-0.3c-0.6,0-1.2,0-1.8,0.3c-1.3,0.5-1.9,1.7-2.2,2.6c-0.5,1.9-0.4,3.5-0.2,5
		c0.2,1.5,0.5,2.9,0.9,4.4c0.7,2.8,1.6,5.6,2.5,8.3c0.6,1.9,1.2,3.7,1.8,5.6c-4,3.6-9,6.2-14.1,7.9c-2.6,0.8-5.3,1.4-7.7,1.3l-0.9,0
		c-0.2-0.1-0.5-0.1-0.7-0.2c-0.4-0.1-0.8-0.4-1.1-0.7c-0.7-0.6-1.2-1.6-1.5-2.8c-0.2-0.8-0.4-1.6-0.5-2.4c0.1-0.2,0.2-0.4,0.2-0.6
		l1.6-4c1.1-2.7,2.1-5.6,2.7-8.5c0.6-2.9,0.9-6,0.9-9c0-0.8,0-1.4-0.1-2.4c-0.1-0.5-0.2-1-0.4-1.6c-0.1-0.3-0.3-0.6-0.6-1
		c-0.3-0.4-0.9-0.9-1.8-1c-0.2,0-0.4,0-0.6,0c-0.2,0-0.4,0.1-0.6,0.1c-0.3,0.1-0.6,0.3-0.8,0.4c-0.2,0.1-0.4,0.3-0.5,0.4
		c-0.2,0.1-0.2,0.3-0.3,0.4c-0.4,0.5-0.6,0.9-0.8,1.3c-0.1,0.3-0.2,0.6-0.3,0.9c0-0.2,0-0.3,0-0.5c0-0.5-0.2-1-0.3-1.5l-0.2-0.7
		c-0.1-0.3-0.3-0.7-0.6-1c-0.5-0.7-1.3-1.2-2-1.5c-1.5-0.5-2.6-0.2-3.6,0c-0.9,0.3-1.7,0.6-2.5,1c-2.9,1.6-5.1,3.7-7.2,6
		c-1,1.1-2,2.3-2.9,3.5c-0.4,0.6-0.9,1.2-1.3,1.9c-0.4,0.7-0.8,1.3-1.2,2c-1.5,2.6-2.7,5.3-3.8,8c-1.1,2.8-2,5.6-2.6,8.5
		c-0.4,2-0.8,4.1-0.8,6.4c-0.3,0.3-0.5,0.7-0.8,1c-1.8,2.1-3.7,4-5.7,5.8c-2.1,1.8-4.2,3.4-6.5,4.8c-2.3,1.3-4.7,2.4-7.2,3.1
		c-2.5,0.7-5,1-7.4,0.6c-0.6-0.1-1.2-0.3-1.7-0.4c-0.6-0.1-1.1-0.4-1.7-0.6c-1.1-0.5-2.1-1.1-3.1-1.9c-1.9-1.5-3.3-3.6-4.4-5.9
		c-2.2-4.6-2.8-10.1-2.4-15.5c0.4-5.4,1.6-10.8,3.6-15.8c2-5.1,4.6-10,7.8-14.4c1.6-2.2,3.4-4.3,5.2-6.3c1.9-1.9,4-3.7,6.2-5.3
		c2.2-1.6,4.5-2.9,7-3.9c2.5-1,5.1-1.6,7.7-1.7c2.6-0.1,5.3,0.4,7.7,1.5c1.2,0.6,2.3,1.2,3.1,2.2c0.4,0.5,0.7,1,0.8,1.6
		c0.1,0.6,0.1,1.2-0.1,1.7l0.8,0.5c1-1.4,0.8-3.4-0.1-4.8c-0.9-1.4-2.1-2.4-3.4-3.2c-2.6-1.6-5.6-2.6-8.7-2.8
		c-3.1-0.2-6.2,0.3-9.1,1.2c-2.9,0.9-5.6,2.3-8.2,3.9c-5.1,3.3-9.4,7.5-13,12.2c-3.6,4.8-6.5,10-8.6,15.6
		c-2.1,5.6-3.5,11.4-3.9,17.4c-0.3,6,0.3,12.2,3,18c1.3,2.9,3.3,5.5,5.8,7.6c2.5,2.1,5.7,3.5,8.9,4c3.3,0.5,6.5,0.2,9.5-0.7
		c3-0.9,5.8-2.2,8.4-3.7c2.6-1.6,5-3.4,7.3-5.3c1.5-1.4,3-2.8,4.4-4.3c0.3,0.6,0.6,1.1,1,1.7c0.6,0.8,1.3,1.5,2.1,2
		c0.4,0.3,0.8,0.5,1.2,0.7c0.4,0.2,0.9,0.3,1.3,0.5c1.8,0.6,3.7,0.5,5.4,0.2c1.7-0.4,3.2-1.1,4.6-1.9c2.8-1.7,5-3.8,7-6.1
		c1.5-1.7,2.8-3.6,4-5.6c0.5,0.9,1.1,1.8,1.9,2.6c0.7,0.6,1.6,1.2,2.5,1.5c0.5,0.2,0.9,0.2,1.4,0.3c0.4,0,0.8,0,1.2,0.1
		c3.3,0.1,6.2-0.6,9.1-1.6c5.1-1.7,9.9-4.3,14.1-7.8c0.3,1.1,0.7,2.3,1,3.4c-0.7,0.4-1.4,0.8-2.1,1.2c-5,3-9.3,7.4-11.7,12.9
		c-1.1,2.7-1.9,5.7-1.6,8.9c0.2,1.5,0.7,3.1,1.6,4.5c1,1.3,2.3,2.4,3.7,3c1.4,0.7,3.2,1,4.9,0.6c1.7-0.4,3.1-1.4,4.1-2.6
		c2.2-2.3,3.4-5.2,4.2-8c0.9-2.9,1.3-5.8,1.4-8.8c0.1-3-0.4-6-1-8.8c-0.2-0.9-0.4-1.7-0.6-2.6c2.9-1.4,5.9-2.7,8.9-4.1
		c-0.1,0.3-0.2,0.7-0.2,1c-0.5,2.8-0.9,5.6-0.8,8.5c0,1.5,0.2,2.9,0.4,4.4c0.3,1.5,0.7,3,1.4,4.5c0.7,1.5,1.7,3,3.2,4.1
		c1.5,1.2,3.6,1.8,5.4,1.7c0.9,0,1.8-0.2,2.6-0.4c0.2-0.1,0.4-0.1,0.6-0.2l0.5-0.2l1-0.4c0.7-0.2,1.4-0.5,2-0.8
		c0.7-0.3,1.3-0.5,2-0.9c5.1-2.5,9.8-5.7,14-9.5c2.1-1.9,4.1-4,5.9-6.3c1.2-1.5,2.3-3.2,3.2-5c0.2,1,0.5,2,0.7,3
		c0.6,2.5,1.3,4.9,2,7.3c1.4,4.9,2.9,9.8,5.1,14.5c1.1,2.3,2.4,4.7,4,6.7c0.8,1,1.8,2,2.8,2.9c0.5,0.4,1.1,0.8,1.7,1.1
		c0.6,0.3,1.3,0.5,2.1,0.5v-1C544.8,105.5,544.3,105.1,543.9,104.8z M447.8,45.5C447.8,45.5,447.8,45.5,447.8,45.5
		C447.8,45.5,447.8,45.5,447.8,45.5z M425.8,56.7c0.3-0.6,0.7-1.2,1-1.7c0.3-0.5,0.7-1.1,1.2-1.6c0.8-1.1,1.7-2.1,2.6-3.1
		c1.8-2,3.8-3.8,5.9-5c0.5-0.3,1-0.5,1.5-0.6c0.1,0,0.3-0.1,0.4-0.1c0.1,0.2,0.1,0.4,0.1,0.6c0,0.2,0.1,0.4,0,0.7
		c0,1-0.4,2.1-0.9,3.2c-0.5,1.1-1.2,2.3-1.9,3.4c-1.5,2.2-3.3,4.3-5.1,6.5c-0.9,1.1-1.9,2.2-2.8,3.2l-2.9,3.1
		c-1.6,1.7-3.1,3.3-4.7,5.1C421.5,65.6,423.4,60.9,425.8,56.7z M439.3,71.1c-1.2,2.3-2.8,4.6-4.5,6.6c-1.8,2-3.7,3.8-5.9,5.1
		c-1.1,0.6-2.2,1.1-3.3,1.3c-1.1,0.2-2.1,0.2-3-0.1c-0.2-0.1-0.5-0.1-0.7-0.3c-0.2-0.1-0.5-0.2-0.6-0.4c-0.4-0.2-0.7-0.6-0.9-0.9
		c-0.5-0.7-0.9-1.8-1-2.9c0-0.1,0-0.2,0-0.3c0.3-0.4,0.6-0.8,1-1.3c0.8-1,1.7-2.1,2.6-3.1c1.9-2.1,3.8-4.2,5.7-6.3l2.9-3.2
		c1-1.1,1.9-2.2,2.8-3.3c1.9-2.2,3.8-4.4,5.5-7c0.8-1.2,1.5-2.4,2.2-3.8c-0.2,1.3-0.3,2.6-0.5,3.9c-0.4,2.9-0.7,5.8-0.8,8.7
		c0,1.3,0,2.6,0,3.9c-0.2,0.5-0.4,1-0.6,1.5C439.9,70,439.6,70.5,439.3,71.1z M469.4,47.8c-0.2-1.3-0.2-2.6,0.1-3.5
		c0.2-0.4,0.3-0.6,0.4-0.6c0.1,0,0.4-0.1,0.9,0.1c0.9,0.3,1.9,1.2,2.7,2.1c1.6,1.9,2.7,4.4,3.2,6.9c0.2,1.3,0.3,2.5,0.2,3.8
		c0,0.6-0.1,1.3-0.3,1.9l-0.2,0.9l-0.3,0.8c-0.5,1.3-1.3,2.5-2.3,3.7c-0.4-1.3-0.8-2.7-1.2-4c-0.8-2.7-1.6-5.4-2.3-8.1
		C469.8,50.5,469.5,49.1,469.4,47.8z M474.4,77.2c0.6,2.7,1.1,5.4,1.1,8.2c0,2.7-0.4,5.5-1.1,8.1c-0.8,2.6-1.9,5.2-3.6,7.1
		c-0.8,0.9-1.9,1.7-3,2c-1.1,0.3-2.3,0.1-3.4-0.4c-1.2-0.5-2.1-1.3-2.9-2.3c-0.8-1-1.1-2.2-1.3-3.5c-0.3-2.6,0.3-5.3,1.3-7.8
		c0.5-1.3,1.1-2.5,1.9-3.6c0.8-1.1,1.6-2.3,2.5-3.3c1.8-2.1,4-3.8,6.4-5.3c0.5-0.3,1.1-0.7,1.7-1C474.1,75.9,474.3,76.6,474.4,77.2z
		"/>
</g>
<g>
	<path class="st0" d="M567.1,85.8l-11.4,12.1l16.2-3.9l17.5-10.1c-0.2-0.3-0.4-0.6-0.7-1c-0.2-0.3-0.4-0.5-0.5-0.8
		c-0.4-0.6-0.8-1.3-1.2-1.9c-0.5-0.8-0.9-1.6-1.4-2.4c-0.1-0.3-0.3-0.5-0.4-0.8c-0.2-0.5-0.5-0.9-0.7-1.4L567.1,85.8z"/>
	<path class="st0" d="M587.2,43.8c-7.5,4.5-8.4,17.5-2.1,30.9c0.8,1.7,1.7,3.4,2.7,5c0.8,1.3,1.7,2.6,2.6,3.9
		c8.9,12.1,21.4,17.8,29,13.2l1.3-0.8c0,0-0.1,0-0.1,0c-0.1,0-0.3,0-0.4,0c-0.4,0-0.8,0.1-1.2,0.1c-0.1,0-0.2,0-0.2,0
		c-0.2,0-0.3,0-0.5,0c-0.2,0-0.3,0-0.5,0c-0.3,0-0.6-0.1-0.9-0.1c-0.1,0-0.3,0-0.4,0c-0.4-0.1-0.9-0.1-1.3-0.2
		c-0.1,0-0.3-0.1-0.4-0.1c-0.3-0.1-0.6-0.2-1-0.3c-0.2-0.1-0.4-0.1-0.5-0.2c-0.3-0.1-0.6-0.2-0.9-0.3c-0.2-0.1-0.4-0.1-0.5-0.2
		c-0.3-0.1-0.7-0.3-1-0.4c-0.2-0.1-0.3-0.1-0.5-0.2c-0.5-0.2-1-0.5-1.5-0.7c-6.2-3.3-12-9.1-16.4-16.4s-6.9-15.1-7-22.1
		c0-0.5,0-1.1,0-1.6c0-0.2,0-0.3,0-0.5c0-0.4,0.1-0.8,0.1-1.1c0-0.1,0-0.3,0-0.4c0.1-0.5,0.1-1,0.2-1.4c0-0.1,0-0.2,0-0.2
		c0.1-0.4,0.2-0.8,0.3-1.1c0-0.1,0.1-0.3,0.1-0.4c0.1-0.3,0.2-0.7,0.3-1c0-0.1,0.1-0.2,0.1-0.3c0.1-0.4,0.3-0.8,0.5-1.2
		c0-0.1,0.1-0.2,0.1-0.3c0.1-0.3,0.3-0.6,0.5-0.9c0.1-0.1,0.1-0.2,0.2-0.3c0.2-0.3,0.4-0.6,0.6-0.9c0,0,0.1-0.1,0.1-0.1L587.2,43.8z
		"/>
	<path class="st0" d="M592.6,40.6c-4.1,2.5-6.3,7.6-6.2,14.3c0.1,6.8,2.5,14.5,6.8,21.6c4.3,7.1,10,12.8,16,16
		c5.9,3.2,11.5,3.5,15.6,1.1c4-2.4,6.2-7.2,6.2-13.6l-4.4,2.5c-0.3,0.2-0.6,0.3-0.9,0.4c-0.1,0-0.2,0.1-0.3,0.1
		c-0.2,0.1-0.5,0.1-0.8,0.2c-0.1,0-0.2,0-0.3,0.1c-0.3,0-0.7,0.1-1,0.1c0,0,0,0,0,0c0,0-0.1,0-0.1,0c-0.3,0-0.7,0-1-0.1
		c-0.1,0-0.2,0-0.2,0c-0.4-0.1-0.8-0.2-1.2-0.3c-0.1,0-0.1,0-0.2-0.1c-0.4-0.1-0.7-0.2-1.1-0.4c-0.1,0-0.1,0-0.2-0.1
		c-0.4-0.2-0.8-0.4-1.3-0.6c-0.1,0-0.2-0.1-0.3-0.2c-0.4-0.2-0.9-0.5-1.3-0.8c-3.9-2.5-7.7-6.7-10.8-11.7c-3.1-5-5-10.4-5.5-15
		c-0.5-4.7,0.7-8.2,3.3-9.8l4.5-2.8c-3.3-1.7-6.4-2.6-9.2-2.6C596.5,38.9,594.4,39.5,592.6,40.6z"/>
	<path class="st0" d="M604,45.1c-2.2,1.4-3.2,4.5-2.8,8.8c0.4,4.5,2.3,9.6,5.3,14.6c3,4.9,6.7,9,10.5,11.4c3.7,2.4,6.9,3,9.1,1.6
		l7.3-4.1c-0.3-0.2-0.5-0.3-0.8-0.5c-0.3-0.2-0.7-0.4-1-0.6c-0.4-0.3-0.8-0.6-1.1-0.8c-0.3-0.2-0.6-0.5-1-0.7
		c-0.4-0.3-0.8-0.6-1.1-1c-0.3-0.3-0.6-0.5-0.9-0.8c-0.4-0.3-0.8-0.7-1.1-1.1c-0.3-0.3-0.6-0.6-0.9-0.8c-0.4-0.4-0.7-0.8-1.1-1.2
		c-0.3-0.3-0.5-0.6-0.8-0.9c-0.4-0.4-0.8-0.9-1.1-1.4c-0.2-0.3-0.5-0.6-0.7-0.9c-0.4-0.5-0.8-1.1-1.2-1.6c-0.2-0.2-0.4-0.5-0.5-0.7
		c-0.6-0.8-1.1-1.6-1.6-2.5c-0.5-0.8-1-1.7-1.5-2.6c0,0-0.1-0.1-0.1-0.1c-0.4-0.8-0.9-1.7-1.2-2.5c0-0.1-0.1-0.2-0.1-0.2
		c-0.4-0.8-0.7-1.6-1-2.5c0-0.1-0.1-0.2-0.1-0.3c-0.3-0.8-0.6-1.6-0.9-2.4c0-0.1-0.1-0.2-0.1-0.3c-0.3-0.8-0.5-1.6-0.7-2.4
		c0-0.1-0.1-0.2-0.1-0.4c-0.2-0.8-0.4-1.6-0.5-2.3c0-0.1,0-0.2-0.1-0.4c-0.1-0.8-0.3-1.5-0.3-2.3c0-0.1,0-0.2,0-0.3
		c-0.1-0.8-0.1-1.5-0.2-2.3c0,0,0-0.1,0-0.1L604,45.1z"/>
	<path class="st0" d="M612.5,39.5c0,6.9,2.4,14.6,6.8,21.8c4.1,6.8,9.6,12.4,15.4,15.6c6,3.4,11.6,4,15.8,1.7c-0.1,0-0.1,0-0.2,0
		c-0.3,0-0.6,0.1-1,0.1c-0.2,0-0.5,0-0.7,0c0,0-0.1,0-0.1,0c-0.3,0-0.6,0-0.9,0c-0.2,0-0.4,0-0.7,0c-0.4,0-0.8-0.1-1.2-0.2
		c-0.4-0.1-0.7-0.1-1.1-0.2c-0.4-0.1-0.8-0.2-1.2-0.3c-0.3-0.1-0.6-0.2-0.9-0.3c-0.3-0.1-0.6-0.2-0.9-0.3c-0.3-0.1-0.6-0.3-0.9-0.4
		c-0.3-0.1-0.6-0.2-0.9-0.4c-0.3-0.1-0.6-0.3-0.9-0.5c-0.3-0.2-0.6-0.3-0.9-0.5c-0.3-0.2-0.6-0.4-0.9-0.5c-0.3-0.2-0.6-0.4-0.9-0.5
		c-0.3-0.2-0.6-0.4-0.9-0.6c-0.3-0.2-0.6-0.4-0.9-0.6c-0.3-0.2-0.6-0.4-0.9-0.7c-0.3-0.2-0.6-0.5-0.9-0.7c-0.3-0.2-0.6-0.5-0.9-0.7
		c-0.3-0.3-0.6-0.5-0.9-0.8c-0.3-0.3-0.6-0.5-0.8-0.8c-0.3-0.3-0.6-0.6-0.9-0.9c-0.3-0.3-0.5-0.5-0.8-0.8c-0.3-0.3-0.6-0.7-0.9-1
		c-0.2-0.3-0.5-0.6-0.7-0.8c-0.3-0.4-0.6-0.8-0.9-1.2c-0.2-0.3-0.4-0.5-0.6-0.8c-0.3-0.5-0.7-0.9-1-1.4c-0.2-0.2-0.3-0.5-0.5-0.7
		c-0.5-0.7-1-1.5-1.4-2.2c-0.4-0.7-0.9-1.5-1.3-2.2c-0.1-0.1-0.1-0.2-0.2-0.3c-0.4-0.7-0.7-1.4-1.1-2.1c-0.1-0.1-0.1-0.3-0.2-0.4
		c-0.3-0.7-0.7-1.4-0.9-2.1c0-0.1-0.1-0.2-0.1-0.3c-0.3-0.7-0.6-1.4-0.8-2.1c0-0.1,0-0.1-0.1-0.2c-0.3-0.7-0.5-1.4-0.7-2.1
		c0-0.1-0.1-0.2-0.1-0.4c-0.2-0.7-0.4-1.4-0.5-2.1c0-0.1-0.1-0.2-0.1-0.4c-0.2-0.7-0.3-1.4-0.4-2.1c0,0,0-0.1,0-0.1
		c-0.1-0.7-0.2-1.3-0.3-2c0-0.1,0-0.2,0-0.2c-0.1-0.7-0.1-1.3-0.1-1.9c0-0.1,0-0.2,0-0.3c0-0.6,0-1.3,0-1.9c0-0.1,0-0.2,0-0.3
		c0-0.6,0.1-1.3,0.1-1.9c0,0,0,0,0,0c0.1-0.6,0.2-1.2,0.3-1.8c0-0.1,0-0.2,0.1-0.3c0.1-0.5,0.2-1.1,0.4-1.6c0-0.1,0.1-0.2,0.1-0.3
		c0.2-0.5,0.3-1,0.5-1.5c0-0.1,0.1-0.1,0.1-0.2c0.2-0.5,0.4-0.9,0.7-1.4c0,0,0-0.1,0.1-0.1c0.2-0.4,0.5-0.9,0.8-1.3
		c0,0,0.1-0.1,0.1-0.1C614.6,28.2,612.5,33.1,612.5,39.5z"/>
	<path class="st0" d="M654.1,40.3c-7-11.5-17.2-18.7-25.5-18.7c-1.9,0-3.7,0.4-5.3,1.2c-0.3,0.1-0.6,0.3-0.9,0.5
		c-0.1,0.1-0.2,0.2-0.3,0.2l-0.1,0.1c-5,3.4-6.7,10.9-5.2,19.5c0.9,5.2,3,10.7,6.2,16c8.6,14.1,22.5,21.9,31.1,17.4l0.1-0.1
		c0.1-0.1,0.3-0.1,0.4-0.2C663.2,71,662.9,54.9,654.1,40.3z"/>
</g>
</svg>
