<svg id="Layer_1" data-name="Layer 1" xmlns="http://www.w3.org/2000/svg" viewBox="0 0 166.83 181.24"><defs><style>.cls-1{fill:#eb2c24;}</style></defs><title>gente</title><path class="cls-1" d="M74.73,32.47c1,1.6.41,2.69-.48,4.13s-.61,3.41-.81,5.17c-.73,6.44-1.6,12.87-2.06,19.33a33.78,33.78,0,0,0,.89,8.09c.11.62,1.1,1.18,1.79,1.59.42.25,1,.16,1.59.47-1.31,1.48-3,.74-4.58.78s-3.32,0-5.29,0c-.3-6.83-.6-13.6-.89-20.37l-.34-.07c-.63,2.48-1.15,5-1.92,7.41-.9,2.82-.59,5.64-.28,8.44.07.73,1.12,1.36,1.73,2,.27.28.57.53.85.8-.24.23-.47.62-.73.65-2.19.23-4.39.39-7,.6a44.61,44.61,0,0,1-.4-5.26c.4-8.9,1-17.8,1.3-26.7,0-1.4-.77-2.81-1-4.25-.63-3.93-1.28-7.86-1.69-11.81a37.34,37.34,0,0,1,.11-6.6,5.74,5.74,0,0,1,3.93-5.49c1.55-.58,2.85-1.8,4.3-2.68a5.34,5.34,0,0,1,1.36-.41c-.22-.09-.57-.12-.73-.31-1.27-1.51-.57-6.2,1.07-7.3a4.37,4.37,0,0,1,6.33,1.73,4.28,4.28,0,0,1,0,3.11,64,64,0,0,1-3,5.77c3.31,1.17,5.36,3.53,5,8,1.68-.62,3.3-.75,4.08-1.63,1-1.09.07-2.42-.76-3.64-2.26-3.33-1.65-6.37,2.13-8.18,1.89-.91,5,1.18,5.26,3.63a24.1,24.1,0,0,1-.37,4.37A10,10,0,0,0,84,16.2c.18,1.25.57,2.17,2.29,1.63,1.11-.34,3.26,2,3.46,3.22.37,2.43.84,4.84,1.26,7.25,0,.31.23.69.11.9-1.59,2.73.47,4.95,1,7.37a10.87,10.87,0,0,0,.92,2.62c1.22,2.36,0,3.73-2.56,3.39a27.71,27.71,0,0,0-.27,3.14c.13,6.67.18,13.37,1.63,19.92a20.29,20.29,0,0,0,2.32,5.55c.39.67,1.63.86,3,1.49-2,.64-3.57,1-5.07-.1s-1.77-1-2.61.6c-2.4-1.59-2-4.22-2.32-6.49-.71-4.5-1.27-9-1.86-13.56-.19-1.47-.17-3-.41-4.43a18.94,18.94,0,0,0-1-2.86l-.59,0c-.31,1.46-.71,2.91-.93,4.38a73.58,73.58,0,0,0,0,19.61c.23,1.86-.4,3-1.71,3-1,0-1.68-.44-1.77-1.65-.57-7.51-1.2-15-1.82-22.54-.13-1.53.29-3.29-1.73-4.08-.22-.09-.24-1-.16-1.49.45-2.79,1-5.57,1.43-8.35C76.88,33.07,76.69,32.8,74.73,32.47Z"/><path class="cls-1" d="M7.54,39.07,6.15,40a5.31,5.31,0,0,1,.18-.64c1-2.12,2.14-4.17,2.91-6.35.71-2,1.9-3.25,3.92-3.38a4.77,4.77,0,0,1,4.68,2.66A8.8,8.8,0,0,1,19,39.66a1.88,1.88,0,0,0,.93,2.4,3.78,3.78,0,0,1,1.79,3.3,75.67,75.67,0,0,0,1.41,7.51c.58,3.39-.16,4.61-3.5,5.91,0,3.93.29,8-.09,11.94-.31,3.2-1.43,6.33-2.21,9.49-.59,2.4.13,4.47,1.34,6.54a48.19,48.19,0,0,1,2.64,5.69,1.53,1.53,0,0,1-.35,1.42,21.85,21.85,0,0,1-4.57,2.75c-1.93.74-1.62,2-1.28,3.38.12.48.53.88.65,1.36.67,2.55-.11,3.26-2.68,2.72-1.73-.36-3.52-.49-5.48-1,3.36-.7,2.77-3.45,3.5-6.06-1.73-.4-3.48-.72-5.16-1.25a3,3,0,0,1-1.8-1.38,3.91,3.91,0,0,1,.28-2.42c.14-.41.74-.66,1.12-1,1.78-1.61,2.28-3.31,1-5.49C4.14,81.27,3.68,76.6,2.61,72.09a18,18,0,0,1,.55-9.27c.33-1.16.79-2.4-.88-3-.14-.06-.35-.31-.33-.43.41-2-1-3.33-1.78-4.93-.4-.83,0-2.27.42-3.25C1.59,49,2.88,47,4,44.83c.81-1.54,1.08-3.44,3-4.23C7.27,40.5,7.3,39.83,7.54,39.07Z"/><path class="cls-1" d="M47.37,73.71l.72,2c1.89-.91,4.06,1.07,5.8-.72l3.76.72-.28.32a7.36,7.36,0,0,0,.86,2.19c1.47,1.71,1.91,3.44.68,5.43-2,3.18-2.91,6.8-4.23,10.25a11.62,11.62,0,0,1-1.29,2c.92,2.19,3.08,2.76,5.15,3.68-1.66,1.38-3.47,1.12-5,.84s-2.87-1.36-4.3-2.1c0,.6.14,1.35-.16,1.8s-1,.2-1.78.31l-.45-5.58c-1.65,1.67-3.85,3-5.38,5l1.6,1.08-.12.54a45.78,45.78,0,0,1-4.68.12c-1-.06-1.3-1-1.48-1.88-.15-.74,0-1.73-1.33-1.63-.15,0-.59-.81-.5-1.15.42-1.7,1-3.37,1.56-5.34-.63-.55-1.6-1.35-2.52-2.2a1.35,1.35,0,0,1-.34-.82c-.15-2-.25-4.06-.41-6.08a23.69,23.69,0,0,1-.34-3.1,12.17,12.17,0,0,1,.7-4,7.69,7.69,0,0,0,.53-4A27.38,27.38,0,0,1,34.2,66a3.5,3.5,0,0,1,2.26-2.65c.9-.45,1.73-1,2.6-1.53a21.57,21.57,0,0,1,2-1.14,4.13,4.13,0,0,0,2.32-2c.92-1.8,3.06-2.35,5.11-1.36a3.24,3.24,0,0,0,3,.06,6.32,6.32,0,0,1,6.72,1.06c1.59,1.27,1.35,3.1,1.06,4.87-.07.38-.17.75-.23,1.13-.1.63-.2,1.07-1,1.3a14.15,14.15,0,0,0-3,1.56c-.52.3-.55,1.86-.17,2.57a14.46,14.46,0,0,1,.58,1.71c-1.92-.81-2,.6-2.46,1.71C50.93,71.29,49.31,73.18,47.37,73.71ZM41,68.16l-.29.09.19,1.12c-.37-.38-.43-1-.74-1.2a3.18,3.18,0,0,0-1.67-.7,1.74,1.74,0,0,0-1.36.59A13.11,13.11,0,0,0,36,70.31a8.68,8.68,0,0,1,4.26.41c.19.08.56-.29.86-.46l.29.56.24-.08ZM53.7,89.3c1.78-2.67,1.44-4.23-1-5.39-.8.68-1.3,1.48-.76,2.51S53.06,88.27,53.7,89.3ZM45.4,78.72c-.09-1.13-.18-2.17-.27-3.21,0-.59-.24-1-1-.77s-1.35.11-1,1.13a13.84,13.84,0,0,0,.31,1.48,14.2,14.2,0,0,0,1,1.63Zm-4.43-4L40.7,78l1,.33C41.65,77.11,42.36,75.94,41,74.74Zm-4.14,3.45,2.75-3C37.56,75.51,36.54,76.52,36.83,78.19Zm-1.55-2.94c1.4.67,2.45-.18,3.66-.72A3.07,3.07,0,0,0,35.28,75.25ZM46.75,60.69l.45.08,1.12-1.71-.15-.26-1.83.43Z"/><path class="cls-1" d="M103.56,151.68l-1.44-2.05c.18-1.54.37-3.23.6-5.21-1.49.46-3.24-.67-3.79,1.73-.29-.49-.53-.86-.91-1.48a17.12,17.12,0,0,0-.6,3.69c.13,2,.73,3.9.83,5.86a36.19,36.19,0,0,1-.29,6.06c-.18,1.52-1.47,1-2.37.91s-2.09-.34-1.64-1.64c.66-1.9.24-3.55-.32-5.38a26.62,26.62,0,0,1-.82-5.86,9.71,9.71,0,0,1,.4-2.5,23.76,23.76,0,0,1-1.18-2.7c-.77-2.63,0-5,1.29-7.29a20.36,20.36,0,0,0,1.29-4.42l-2.3-.33c-.15,2.06-.29,4-.42,5.89h-.27c0-1.5.1-3,0-4.48-.09-1-.61-1.92-.79-2.9a16.64,16.64,0,0,1-.23-2.91,15,15,0,0,1,.26-2.09c-2.66,1.94-4.29,5.62-8.57,3.52-.09.9-.14,1.48-.2,2.07L81,141.78a45.25,45.25,0,0,0-.59,6.64,20.26,20.26,0,0,1-2.28,10,7.91,7.91,0,0,0-.37.84c-.23.73-.29,2-.67,2.1a4.63,4.63,0,0,1-3.18-.33,21.62,21.62,0,0,1-2.08-1.85c-.4-.44-1-1.3-.8-1.6,1.77-3.19.09-5.95-.87-8.83a25.4,25.4,0,0,1-.91-4.24c-.22-1.49-.27-3-.4-4.46-.5,0-.65-.05-.74,0-3,1.83-3,1.85-5.62-.53-1.76-1.62-3.49-3.29-5.61-5.3.95.05,1.45,0,1.93.11,1.52.21,3.68-1.76,3.52-3.28,0-.18-.46-.32-1.07-.72.17-.69.46-1.81.8-3.13-2-.91.41-1.82.43-2.84-.07-.13-.11-.3-.19-.32-2.74-.7-2.68-.69-2-3.49.44-1.9.66-3.85,1-5.77.72-3.63,1.45-7.26,2.24-10.88A6.62,6.62,0,0,1,67.36,99c1.76-.81,3.39-1.92,5.29-3-2.75-1.69-2.68-4.11-2.21-6.46a3.69,3.69,0,0,1,4.06-2.82,3.58,3.58,0,0,1,3.44,3.08,8.77,8.77,0,0,1-.2,4.18c-1.2,3.12-1.25,3.58,1.83,5a8.58,8.58,0,0,1,5,6.85c.44,2.49.76,5,1.19,7.49.33,1.89.76,3.75,1.31,5.75.52-3.63,3.19-5.28,6-6.88.3-.17.48-1.2.44-1.22-2-.93-1.28-3.26-2.27-4.74-.29-.42.67-2,1.36-2.71,1.17-1.31,2.69-.85,4.15-.37a2.37,2.37,0,0,1,1.71,2.52,32.47,32.47,0,0,0,.67,4.22l-.52.35c1.22.49,2.42,1,3.68,1.44,2.76.86,4.3,3,5.77,5.24a10.62,10.62,0,0,1-.68,12.11,31.39,31.39,0,0,1-3.27,2.82c1.55,3.11,1.57,6.51,1.25,9.92-.25,2.78-.66,5.55-1.07,8.32a6.6,6.6,0,0,1-.76,1.62ZM66.68,129.31l.85-.49a28.23,28.23,0,0,1-1.85-5.19,28,28,0,0,1,.22-5.51,26.82,26.82,0,0,1-1,3.63,6,6,0,0,0-.18,4.88A19.86,19.86,0,0,0,66.68,129.31Z"/><path class="cls-1" d="M103.48,151.85c.21,2.3.48,4.59.61,6.88.07,1.23-.41,2.15-1.88,2.2s-1.73-1-1.84-2c-.14-1.4-.18-2.8-.27-4.21-.15-2.24.52-2.85,2.75-2.6a1.74,1.74,0,0,0,.67-.19Z"/><path class="cls-1" d="M137.07,11.65l6.42,3.47c1.62-2.06,1.51-4.45,1.9-6.74.24-1.37.67-3.06,1.64-3.9,2.27-2,5.31-.82,6.16,2.25.49,1.77.38,3.69.76,5.49.18.87.72,2.1,1.39,2.34,1.82.65,2.29,2.1,2.89,3.58.69,1.7,1.43,3.38,2.15,5.08,1.38,3.28,2.84,6.55,4.12,9.88.52,1.36-.39,2.38-1.56,2.94-1.39.68-2.88,1.13-4.28,1.78-.43.2-1,.72-1,1.08.14,4.51-2.45,8.39-2.9,12.76s-1,8.72-1.55,13.06c-.4,3-1,5.91-1.55,8.85a1.39,1.39,0,0,1-1,.81,21.62,21.62,0,0,1-2.8,0,52.44,52.44,0,0,0,.72-6.59,15.82,15.82,0,0,0-3.42-9.23,16.37,16.37,0,0,1-2.93-9.07c-.09-1.38-.43-2.75-.66-4.13l-.46,0a14.48,14.48,0,0,0-.08,1.47,113,113,0,0,1-1.87,23.44c-.59,3.35-1.84,4.07-5.21,3.13.43-3.8.66-7.65,1.36-11.41a16.07,16.07,0,0,0-.4-8.18c-.75-2.32-1.44-4.66-2.31-7.48-2.14,4.66-2.95,8.83-1.44,13.36a36.71,36.71,0,0,1,1,6.15,9.46,9.46,0,0,0,.34,2.17c.51,1.19-.07,1.65-1,2.17a5.07,5.07,0,0,0-2,1.63,3.73,3.73,0,0,1-3.35,1.93c-.37,0-1-.13-1.08-.38a1.4,1.4,0,0,1,.22-1.16,8.09,8.09,0,0,0,1.42-2.74c-.19-1-.42-1.94-.58-2.91-.43-2.77-.45-5.66-1.33-8.27-1.3-3.88-1.81-7.59-.63-11.57a6,6,0,0,0-.85-5.42c-.84-1.24-.67-3.33-.56-5a26,26,0,0,1,1.12-6,36.73,36.73,0,0,0,2-12.55c-.11-2.76,1.2-4,3.41-5l1.18-.52a10.25,10.25,0,0,1-.82-7.82c.21-.69-.25-1.86.13-2.18a5.81,5.81,0,0,1,2.95-1.28c3.19-.3,4.73.83,4.84,3.64a11.36,11.36,0,0,1-3.37,8.49c-1.2,1.27-3,2.35-1.65,4.59.12.2-.22.94-.5,1.06-2.21.94-.7,2.6-.77,4a28.5,28.5,0,0,0,1.86-4.11c.34-1.16.18-2.46.58-3.74l.48,1.28Zm15.38-.8c-.31-1.26-.45-2-.65-2.66a3.87,3.87,0,0,0-3.24-3.1,1.76,1.76,0,0,0-1.37.51c-.17.19.2.84.3,1.28A3.22,3.22,0,0,1,147.67,8c-.25,1.77.89,2.73,2.19,3.28C150.53,11.57,151.53,11,152.45,10.85Zm-3,35.31-.53-.06a27.05,27.05,0,0,0-.17,8.43Z"/><path class="cls-1" d="M41.81,139.86a13.2,13.2,0,0,1,0,2.08c-.16,1.08-.27,2-1.79,2.38a2.5,2.5,0,0,0-2,3c.18,1.21.32,2.33-1.34,2.93-1.27.46-1.09,2.15.16,3.22l-.46,1.9c1.41,1.39,2.67,2.49,3.76,3.74,1.26,1.45,2.14,3.31,3.59,4.47,2.54,2,4.31,4.78,6.8,6.83.6.5,1.29,1.88,1.05,2.2A9,9,0,0,1,49,174.27c-.5.32-1.21.58-1.41,1a3.38,3.38,0,0,1-4.77,1.7,8.82,8.82,0,0,0-2-.4c-.14-1.27.4-1.73,1.56-2.05.82-.23,1.45-1.12,2.53-2l-14.42-12.8c-1.18,3.33-2.12,6.45-3.38,9.44-.93,2.23-2.06,4.34-1.4,6.43-1.15.87-2,1.56-2.92,2.22a1.31,1.31,0,0,1-.71.16c-3.07,0-6.13.07-9.2.07a1.88,1.88,0,0,1-1.29-.71l4.76-2.24-2.54-1.62L16.39,172l.46.38c.5-4.08,2.48-7.82,1.88-12.22-.32-2.33.69-4.83,1.13-7.25.37-2,.87-3.95,1.15-5.95a1.85,1.85,0,0,0-.91-1.42,2,2,0,0,1-1.13-2.9,26.82,26.82,0,0,0,2.62-10.89,15.21,15.21,0,0,1,2.76-8.16c.69-1.07.72-1.73-.38-2.72-3-2.7-3.81-6.58-2.2-9a20,20,0,0,1,2.06-2.27c-1.48-2-1.47-2.6.71-3.92a7.39,7.39,0,0,1,4.06-1.38c4.28.4,4.86,2.68,4.18,6.55-.06.34-.54.6-.82.89l-1,1,.3.39a7.9,7.9,0,0,1,1.44-.55c1-.18,1.88-.31,2.38,1a3.85,3.85,0,0,0,1.68,1.8c3.14,1.73,5.34,4,5.05,7.89a1.09,1.09,0,0,0,.07.54c1.24,3.14,2.5,6.27,3.73,9.4.77,2,2.31,4,2.05,5.85s.28,3.85-.32,5.7c0,.11-.16.18-.61.64ZM27.56,119.13l3.23-1.71-.15-.46-4.32.74Zm4.59,28.43v.88l2.4.26v-1.5Z"/><path class="cls-1" d="M107.58,58.35c.52-2,1-4.07,1.56-6.11.56-2.2,1.12-4.4,1.64-6.61a4.17,4.17,0,0,1,3.16-3.47,16.6,16.6,0,0,0,2.31-1c-.68-.78-1.23-1.47-1.85-2.08-1.42-1.39-2-4.09-1.25-5.66s3.38-2.6,5.32-2.34c1.51.2,3.21,2,3.51,3.88a6.15,6.15,0,0,1-.22,1.54c-1.49-.73-2.77-1.41-4.1-1.94a1.4,1.4,0,0,0-1.25.42c-.24.32-.31,1.21-.12,1.33,2,1.3,1.83,3.77,3,5.46,0,0,.1,0,.4.16l2.41-1.71c1.86.82,3.67,1.51,5.36,2.42a4.31,4.31,0,0,1,2,2c1.39,3.93,1.29,8,1,12.1a1.59,1.59,0,0,1-.29.87c-3.14,3.65-2.38,8.28-3.1,12.51-.22,1.31-.27,2.33-1.83,2.74-.44.12-.84,1.23-.87,1.9-.2,4-.12,7.92-.45,11.85-.27,3.19-1,6.34-1.49,9.51-.26,1.63-.43,3.27-.65,4.9-.25,2-1.51,2.68-3.34,2.68h-3.81c1-2.2,1.7-4.21,2.68-6.1.55-1,1.14-1.87.59-3.18a6.39,6.39,0,0,1-.13-2.9c.42-4.24-.6-8.31-1.14-12.26-1,1.87-2,3.72-3,5.58a2.16,2.16,0,0,0-.29.84c-.34,5.53-.66,11.06-1,16.83h-6.19l.19.65c-.52.33-1,.87-1.56.95a24.2,24.2,0,0,1-4.42.2,2,2,0,0,1-1.55-1,76.83,76.83,0,0,1-1.89-8.58c-.46-3.17-.52-6.4-.81-9.59-.12-1.29-.48-2.56-.6-3.84A5.28,5.28,0,0,1,96,79.6l.91,2.92h.45l1-2.11c1.11,2.43,2.08,4.55,3,6.68l-.35.28-2.46-2.65-.45.2a30.46,30.46,0,0,0,1,3.15,26.88,26.88,0,0,0,1.55,2.7l-.42.36-1.76-.57c-.15.3-.46.62-.43.91.25,2.7.47,5.4.89,8.08.17,1.09,2,1.46,1.55,3a4.44,4.44,0,0,0,1.19.11c.75-.12,1.49-.35,2.09-.49.06-2.48,2.2-3.19,3.39-4.11,0-1.38,0-2.44,0-3.5,0-2.16-.21-4.32-.16-6.48a35.43,35.43,0,0,1,.58-3.79c.14-1.09.24-2.19.31-3.29,0-.61-.21-1.31,0-1.83,1-2.46,0-3.06-2.21-2.88-1.83.15-3.67.21-5.5.28-.2,0-.4-.17-.59-.27l0-.55h9.21c-.38-1.7-.51-3,1.82-3,1.42,0,3.7-4.64,3.14-6a2.21,2.21,0,0,0-1.53-1c-2.41-.4-3.52-1.8-3.78-4.16a19.62,19.62,0,0,0-.94-3.16Zm7.5,4.43c.75.32,1.33.62,1.94.82.43.13,1.07.32,1.32.12a1.69,1.69,0,0,0,.33-1.32c-.22-2-1.08-2.52-2.94-1.66-.34.16-.65.37-1.31.76l1.81-.13Zm-2.43-1.34.35-.72a8.85,8.85,0,0,0-2.19-.74c-.27,0-.92,1.07-.86,1.13.84.88,1.78,1.66,2.7,2.46l.45-.53-1.87-2.1.33-.29Z"/><path class="cls-1" d="M107.55,58.3c.34,2-.48,3.53-2,5.39.07-.74,0-1,.14-1.21,1.27-1.54.93-3.23.51-4.94-.28-1.12-1-1.13-1.86-.76A3.26,3.26,0,0,0,103,62.2a12.38,12.38,0,0,0,1.29,1.21c-2.72.1-4.75-.8-5.23-2.33-.88-2.76-.15-4.95,2.15-6.43a3.65,3.65,0,0,1,5.46,1.46c.36.71.58,1.49.87,2.24Z"/><path class="cls-1" d="M105.57,80.67c.34,1.06-.26,2.38,2,2.07l-.39.55-3.28.8-.33-.51Z"/><path class="cls-1" d="M118.69,142c.76-1.85,1.48-3.49,2.08-5.16a2.52,2.52,0,0,0,0-1.65c-.53-1.35-1.59-2.59-1.74-3.95a40.09,40.09,0,0,1-.09-8.69,8.73,8.73,0,0,1,2.31-4.11c1.69-2,1.52-4.37,1.87-6.6.42-2.63,1.7-4.12,4.11-4s3.57,1.54,3.57,4.25a20.5,20.5,0,0,0,0,3,4.28,4.28,0,0,0,1,1.78c.78,1,1.59,2,2.45,2.94a23.65,23.65,0,0,0,1.83,1.63l.54-.38c0,2.09,0,4.18,0,6.28s.08,4.15,2.57,5.15c1.11.45,1.88,1.38.63,2.65-.2.2-.13.86,0,1.17a12,12,0,0,1,1.25,8.74,2.84,2.84,0,0,1-2.49,2.55c-1.25.23-2.37.05-2.56-1.58,0-.19-.27-.34-.39-.48-1.29,3.9-2.65,7.7-3.77,11.57-.36,1.26-.07,2.7-.16,4.05-.18,2.52-.41,5-.65,7.56,0,.34-.2.93-.38,1-2.44.38-2.12,3-3.36,4.31-.33.35.46,1.77.79,2.68a15.22,15.22,0,0,0,.75,1.58,7.45,7.45,0,0,0-1.6.6,4.86,4.86,0,0,0-1.66,1.55c-1,1.95-2.17-.32-3.16.29,0-.62-.27-1.4,0-1.84,1.31-2.1.6-4.14.11-6.26a72.67,72.67,0,0,1-1.83-9.43c-.5-5.35-.64-10.74-.9-16.11a9.72,9.72,0,0,1,.14-2.22C120.19,143.64,120.41,142.46,118.69,142Zm7,23c-.51,4-2.56,7.89-.57,11.9h.57Z"/><path class="cls-1" d="M151.56,91.27c-2.94-2-3.27-3.3-1.79-6.32a45.25,45.25,0,0,1,3.2-6.24c.65-.94,2.18-1.27,3.41-1.92,0-2.5,0-5.44,0-8.38,0-.28.37-.61.65-.8,1.83-1.27,6.21-.71,7.45,1.1a3.87,3.87,0,0,1,.5,2.51,22.89,22.89,0,0,1-1.07,3.93A3,3,0,0,0,165.31,79a3,3,0,0,1,1.39,3.52c-.84,3.22-1.74,6.42-2.82,9.56a7.48,7.48,0,0,0,0,5.47c1.25,3.38.7,7-.3,10.38a34.43,34.43,0,0,0-1.36,12.27c.18,2.65.06,5.32.19,8s.43,5.29.66,8l-2,.48c.48,1.94-.5,2.32-2.23,2.43-2.43.17-4.85.83-7.16-.48-.12-.07-.26-.25-.35-.23-1.51.4-3,.82-4.51,1.23l-.39-.72c.38-.43.68-1.1,1.15-1.27a2.51,2.51,0,0,0,1.74-2.86c-.14-3.71-.35-7.42-.4-11.13,0-4.13-.06-8.26.14-12.38.07-1.4-.12-2.11-1.56-2.28a3.32,3.32,0,0,1-1.57-.51c-.42-.34-1-1-.89-1.41.66-2.24.39-4.81,2.27-6.68.33-.34.29-1,.44-1.58s.17-1.18.49-1.36C150.66,96.05,150.46,93.38,151.56,91.27Zm4,45.19c-.18-7.72,2.53-15.27.11-22.9a34,34,0,0,0-1.74,7.67c-.21,4.3,0,8.62.12,12.93,0,1.14.14,2.28.21,3.34l2.78-.45Zm3-65.37c-.24,2-.77,3.75,1.48,4.25.4.09,1.09-1.08,1.58-1.6ZM150.58,95.8c2-.79,1.95-2.39,2.09-3.91l-.53-.19Z"/><path class="cls-1" d="M36.14,16.28c0-.86.17-1.44,0-1.78a1.63,1.63,0,0,0-1.26-.67c-.31,0-.64.55-.91.9a.69.69,0,0,0,0,.55c.16.4.37.77.56,1.16L33,16.82,34.08,19l.75-1.24c1.06-.17.77.87,1,1.6A11.23,11.23,0,0,1,37,19.4a5,5,0,0,1,3.12,1.49c1.18,1.25,2.6,2.27,3.78,3.51a32.23,32.23,0,0,1,2.32,3.17l-1.49.94,1.72.88-.16.09L38.6,25.33c0,1.91,0,3.65,0,5.39,0,.2.07.39.06.59-.07.92-.14,1.85-.23,3-2.91,1.39-5.86,4-9.95,2.22l0,.42.92.5-1,.12c0,2-.29,4,1.44,5.33-1.06,2.91-1.59,6-5.08,7.35l1.6.48-1.08.65c.31.47.88,1,.93,1.5s-.45,1.17-.64,1.77a2,2,0,0,0-.12,1.15c.36,1.08.26,1.27-.88,1.25l.19,1.63-.36.12-1.06-.92-.87.93c-.93-.89-.9-1,.43-1.69-.12-.15-.2-.41-.33-.44-1-.16-.87-.88-.69-1.52a22.71,22.71,0,0,1,.91-2.63,4.89,4.89,0,0,0,.52-1.16c.1-.78.19-1.55.3-2.33s.28-1.86.42-2.79A.51.51,0,0,1,24.1,46c2-3.35,2.45-7.14,3.07-10.88a22.87,22.87,0,0,0,0-2.75,32.74,32.74,0,0,0,.23-4.18,11.13,11.13,0,0,1,1.33-6.54c.7-1.24,2-2.14,3.2-3.36l-1.33-.88a2.36,2.36,0,0,1-1-2.48,3.87,3.87,0,0,1,3.34-3.12,3.33,3.33,0,0,1,3.51,1.49,3.9,3.9,0,0,1,.45,2C36.92,15.6,36.47,15.88,36.14,16.28ZM25.3,52.88l-2,.33c.26.77.61,1.45,1.71,1.47ZM36.48,32.19l.05-.44-1.85-.11c0,.33-.07.84.09.94a5.58,5.58,0,0,0,1.57.41l-1.06-.75Z"/><path class="cls-1" d="M39.67,55.55c.62.12,1.36.92,1.9-.16,0,.27.11.75,0,.78a9.08,9.08,0,0,1-1.54.3,5.26,5.26,0,0,1,.75.83,6.71,6.71,0,0,1,.42,1.19,7.85,7.85,0,0,1-1,0c-1.08-.16-2.16-.35-3.23-.53a8.31,8.31,0,0,1-2-.38,1.4,1.4,0,0,1-.4-1.2c0-.29.58-.5,1-.85-1.42-1.48.13-2.57.93-3.78.15-.24.79-.16.93-.19l.91,3c.83-1,1-1,2.32.22Z"/><path class="cls-1" d="M37.2,45.4A10.39,10.39,0,0,0,35,39.94h0s.09,0,.11,0c1.27.8,2.4.2,3.55-.32.18-.08.44-.24.53-.17.34.24.85.52.9.85.14,1,1.95,1.29,1,2.68-.33.52-.37,1.27-.78,1.68a3.91,3.91,0,0,1-1.76.88,4,4,0,0,1-1.39-.15Z"/><path class="cls-1" d="M35,39.94l-1.54-2.21,3.41,1.85L35,40Z"/><path class="cls-1" d="M37.18,45.37,37,47.47l-.15.12a9.56,9.56,0,0,1-.52-1.68c0-.13.54-.34.84-.51Z"/></svg>