<svg id="Layer_1" data-name="Layer 1" xmlns="http://www.w3.org/2000/svg" viewBox="0 0 120.32 209.52"><defs><style>.cls-1{fill:#c45130;}</style></defs><title>hombre-mujer</title><path class="cls-1" d="M44.86,175.28c0-.08,0-.15,0-.23S44.72,175.27,44.86,175.28Z"/><path class="cls-1" d="M71,197.34A14.81,14.81,0,0,0,66.52,195a28,28,0,0,1-5.78-3.28c-1.82-1.34-3.58-3.08-3.92-5.32a10.3,10.3,0,0,1,.14-3c.26-1.83.53-3.67.8-5.5,1.08-7.51-.36-16.1,1.86-23.35.89-2.9,2.54-5.63,2.61-8.65.12-5.36.2-11.1.35-16.45q.33-11.51,0-23c-.06-1.9.21-3.22-1-4.65-.47.64-.33,1.52-.44,2.3s-.84,1.66-1.55,1.32c-.48-1.74,0-3.58.08-5.38a9.88,9.88,0,0,0-1-4.44,2.78,2.78,0,0,1,4.62,1.51l.64-6.72a2.82,2.82,0,0,0-.16-1.61,5.57,5.57,0,0,1-.58-1c-.18-.65.39-1.24.77-1.8A4,4,0,0,0,64,81.83a4.63,4.63,0,0,1-.52-.88,2.85,2.85,0,0,1-.09-1.09A56.93,56.93,0,0,0,63,71.2a5.23,5.23,0,0,0-1-3,3.74,3.74,0,0,1-.75-.89,2.11,2.11,0,0,1-.08-1.17c.22-1.83.72-3.68.41-5.51-.27-1.62-1.18-3.26-.65-4.81.28-.82.95-1.59.75-2.43A6.45,6.45,0,0,0,61,52.13c-.22-.42-.22-1.06.21-1.27.26-2.92,1.12-6.81,1.15-9.74a5.22,5.22,0,0,0-.12-1.37,4.35,4.35,0,0,0-.45-1,15,15,0,0,0-3.66-4.23A28.7,28.7,0,0,1,45.56,30c.16,1.4.33,2.79.49,4.18a11.79,11.79,0,0,0,.6,2.89,17.77,17.77,0,0,0,1,2c2.2,4.2,2.34,9.14,2.43,13.87a26.24,26.24,0,0,1-.58,7.46c-.62,2.26-1.86,4.37-2.15,6.7A6.16,6.16,0,0,1,47,63.52c.53-6.64-1.81-13.13-3.62-19.54a13.2,13.2,0,0,1-.55-2.77,13.81,13.81,0,0,1,.69-4.4,3.72,3.72,0,0,0-3.89-1.05,8.36,8.36,0,0,0-3.54,2.31,3.23,3.23,0,0,1,2.78,2,6.36,6.36,0,0,1,.31,2.42q0,9.34-.05,18.7c-1.58-4.26-3.15-8.94-4.44-13.3A24.52,24.52,0,0,1,34,45.33c-.19-1-.24-2.11-.43-3.15-.79-4.46-3.89-8.63-3.08-13.09.09-.48-.06-1.18.07-1.66-3.8,3.93-8.17,8-13.61,8.45a11.77,11.77,0,0,0-2.3.29c-2.43.73-3.53,3.51-4.07,6s-1,5.26-3,6.78a2.29,2.29,0,0,1,1,1.44,5.63,5.63,0,0,1-1.87.29,11.49,11.49,0,0,1-1,3.88q-1.11,3-2.24,5.91A53.18,53.18,0,0,0,.32,70.67,27.29,27.29,0,0,0,5.37,91c.52.71,1.08,1.39,1.56,2.13s.76,1.32,1.11,2l4.23,8.27A13.75,13.75,0,0,1,19,96.08a2.07,2.07,0,0,1,1.19-.33c.86.11,1.25,1.09,1.61,1.87a8.33,8.33,0,0,0,2.6,3.25,4.44,4.44,0,0,1,1.73,1.68c.31.75-.27,1.86-1.06,1.65a1.58,1.58,0,0,1-.66-.43,9.88,9.88,0,0,0-3.88-2c1.31,4.19-.55,8.61-1.22,13a11.38,11.38,0,0,0,.55,4.07c1.26,4.83.5,10,1.27,14.9.23,1.52.61,3,.79,4.53a31.62,31.62,0,0,1,0,5.33c-.79,15.38-3.47,30.83-1.46,46.1.82.76,1.84,1.27,2.67,2l-.57,9.19a3.73,3.73,0,0,1-.21,1.25c-.15.37-.4.68-.57,1a3.48,3.48,0,0,0,1.26,4,10.2,10.2,0,0,0,4.24,1.63,6.64,6.64,0,0,0,4.09,0c1.4-.64,2.35-2.25,3.89-2.38.3-1.28-.5-2.53-1-3.75a16.87,16.87,0,0,1-1-4.16c-.39-2.67-.77-5.33-1.15-8a2.27,2.27,0,0,1,0-.78,3.69,3.69,0,0,1,.8-1.22c.91-1.28.45-3,.37-4.61-.14-2.76,1-5.55.4-8.25-.32-1.41-1.08-2.68-1.49-4.07-.91-3.06,0-6.34.88-9.41,2.23-7.66,2-15.8,3.61-23.62,1.14-5.55,3.79-10.72,4.79-16.31L45,131a32.31,32.31,0,0,1,1.34,3.84c1.06,4,.55,8.34,0,12.5.55-.12.57.8.34,1.31-2,4.36-1.29,9.39-1.07,14.17a67.42,67.42,0,0,1-.51,12.05c0,.16-.08.36-.24.38h0a30.94,30.94,0,0,1-2,9,2.23,2.23,0,0,1,1.5,2.84c-.14.36-.37.68-.52,1a4.73,4.73,0,0,0-.23,1.41l-.41,7.25a.69.69,0,0,0,.72.85l6.63,1.49a3,3,0,0,1,3.84.14,12.2,12.2,0,0,0,3.4,2.32,16.63,16.63,0,0,0,5.5,1.3l3.2.38c2,.24,4.45.27,5.5-1.44C72.9,200.42,72.2,198.47,71,197.34ZM18.12,93c-.6-1.35-1.19-2.71-1.78-4.06a4.88,4.88,0,0,0-.81-1.4c-.3-.34-.69-.59-1-.91a5.74,5.74,0,0,1-1-2c-.63-1.7-1.26-3.39-1.8-5.11-.81-2.53-1.38-5.47.09-7.67.52-.77,1.25-1.39,1.78-2.16.73-1.08.68-3,1.47-3.9,1-1.17,1.42.67,1.82,1.68A34.58,34.58,0,0,1,19,76.24C19.65,81.82,18.9,87.45,18.12,93Z"/><path class="cls-1" d="M31.55,8.69A1.37,1.37,0,0,1,32.11,8a1.39,1.39,0,0,1,.7-.12h7.91a8.68,8.68,0,0,0,2.9,4,5.72,5.72,0,0,1,1.49,1.32c.87,1.34.13,3.39,1.22,4.56l1.42-2.87a3.08,3.08,0,0,0,.35-1A3.61,3.61,0,0,0,48,12.74a9.79,9.79,0,0,1,0-3.58,8.19,8.19,0,0,0,.25-1.9c-.09-1.79-1.73-3-3.21-4.06A21.52,21.52,0,0,0,40.14.5a7.16,7.16,0,0,0-5.42.07,10.61,10.61,0,0,0-2.64,2L29.83,4.76a3.12,3.12,0,0,0-.77,1,2.93,2.93,0,0,0-.19,1.18,67.13,67.13,0,0,0,.23,7.37,1.4,1.4,0,0,0,.49,1.05c.71-.7.57-2.21.79-3.16A18,18,0,0,1,31.55,8.69Z"/><path class="cls-1" d="M120.08,107.58c.21-7.82.1-15.9-.23-23.72a11.43,11.43,0,0,0-1.22-5.62,113.54,113.54,0,0,0-.36-12.91c-.2-2.55-.41-5.1-.61-7.65a38.9,38.9,0,0,0-.44-3.89c-.47-2.55-1.44-4.17-2.44-6.56-.41,0-.92-.38-1.34-.4-.93,0-1.86-.88-2.76-1.13-1.72-.49-3.18-1.73-4.93-2.11a3.63,3.63,0,0,1,.16-2.2,49.31,49.31,0,0,0,1.31-6.79c.54-5.78.47-8.39-.48-13.12a6.34,6.34,0,0,0-.56-1.81,5.83,5.83,0,0,0-1-1.21,14.71,14.71,0,0,0-3.14-3,3.47,3.47,0,0,0-1.46-.34c-2-.16-4.21-.29-6,.75a20.12,20.12,0,0,0-2.74,2.41,16,16,0,0,0-1.8,1.59,8.79,8.79,0,0,0-1.58,3.89,182.9,182.9,0,0,0-3.6,20q-3.14.93-6.22,2a1.22,1.22,0,0,0-1.07,1.21L77,51.3a27.19,27.19,0,0,0-.37,4.12c0,1,.14,2.07.18,3.1a48.42,48.42,0,0,1-.54,7c-.89,8.23-.17,16.57-1.21,24.77-.3,2.3-.68,4.39-.86,6.7-.3,4-.6,8.05.37,11.92,2.05-1.15,4.41-2.34,6.66-1.64a5.23,5.23,0,0,0,.77,2.61c1.39,3,1.45,6.5,1.49,9.85a1,1,0,0,1-1.26-.16,2.74,2.74,0,0,1-.64-1.2,14.84,14.84,0,0,1-.68-3.68c-.34-.09-.54.38-.55.74a8.6,8.6,0,0,0,2.44,6.34,1.57,1.57,0,0,1,.32.41c.19.47-.29,1-.8,1.06a2.8,2.8,0,0,1-1.46-.4,2,2,0,0,0-1.47-.23l-.18-.55c.1,1.31.3,2.81.35,4.13a158.94,158.94,0,0,1-1.91,30.89c-1.09,6.77-.9,13.56-2,20.32-.84,5.29-2.17,10.53-2.27,15.88a9.73,9.73,0,0,0,1.86.37l5.1.83a11.85,11.85,0,0,0,2.14.21l.06,0a19.37,19.37,0,0,0,.55,4c.5,1.81,1.59,3.45,1.74,5.32.08,1-.09,2.16.58,2.92a3.29,3.29,0,0,0,1.57.84l4,1.29c1.46.46,3.3.83,4.32-.3a2.71,2.71,0,0,0,.54-2.29,7.86,7.86,0,0,0-.9-2.26c-.14-.27-.33-.58-.64-.6a.76.76,0,0,0-.41.1,16.48,16.48,0,0,1-5.24,1.17,3.3,3.3,0,0,1-1.62-.22,3.17,3.17,0,0,1-1-.93A11.12,11.12,0,0,1,84,195.18l7.27.11c0-11.14.29-22.51.3-33.65,0-8.66,0-17.37,1.6-25.88,1-5.58,2.07-11.24,2.78-16.86A50.91,50.91,0,0,1,98,127c.2,1.44.27,2.89.35,4.33l.23,4.48a97.11,97.11,0,0,1,.14,11.57c-.33,4.87-.28,9.75-.4,14.62,0,2.09-.09,4.18-.21,6.26-.42,7.71-1.75,15.43-.9,23.11.07.66,1.06.88,1.67,1.15a3.88,3.88,0,0,1,2,2.53,11.47,11.47,0,0,1,.26,3.31l-.1,6.29a1.8,1.8,0,0,0,1.32.24q.33-3.79.54-7.59a15.8,15.8,0,0,1,2.33,8.38,33.15,33.15,0,0,0,9.57.92,4.53,4.53,0,0,0-.72-1.71l-2-3.34a.62.62,0,0,0-.26-.27.64.64,0,0,0-.5.07,9.24,9.24,0,0,1-4.67.75.65.65,0,0,1-.39-.12.67.67,0,0,1-.2-.47c-.19-1.23-.21-2.49-.47-3.7a5.37,5.37,0,0,0-1.78-3.19l6.49.08c.28,0,.68-.23.48-.43a227.6,227.6,0,0,0,.39-31.66c-.39-6.52.12-13,.16-19.49a54,54,0,0,1,1-12.52c1.77-7.3.55-15,1.85-22.45a21.61,21.61,0,0,1,5-.09,1.27,1.27,0,0,0-.31.83,1.82,1.82,0,0,0,1.11-.33A.65.65,0,0,0,120.08,107.58ZM86.53,74.09c-.4.5-.4,1.69-.6,3.68A14.35,14.35,0,0,1,84.74,82a10.75,10.75,0,0,0-1,3.28,39.31,39.31,0,0,1-1.39,5.28s.7-9.35.9-11.59,1.09-11.59,1.09-11.59c.2.39.6,3.38,1.29,4.18S86.93,73.59,86.53,74.09Zm16.17-37.5a2.08,2.08,0,0,0-.55.47,1.75,1.75,0,0,0-.15,1.09,102,102,0,0,1,0,16.49,2.06,2.06,0,0,1-2.11.14c-.62-1.24-1.4-2.24-2-3.49-.5-1-1-2-1.52-3a62.87,62.87,0,0,0-4.48-7.43A19.13,19.13,0,0,0,92.53,35c-.11-1.33-.45-2.65-.45-4a15.54,15.54,0,0,1,.47-3.24,16.84,16.84,0,0,1,1.15-3.82,5.79,5.79,0,0,1,2.7-2.84c.75-.33,1.57-.44,2.32-.77a2.24,2.24,0,0,0,1.48-1.78c1.44,2,2.88,4.31,4.72,5.9a12.51,12.51,0,0,1,.57,5,3.45,3.45,0,0,1,.83-.43,4.57,4.57,0,0,1,0,2.08,1.93,1.93,0,0,1-1.65,1.23A4.94,4.94,0,0,1,102.7,36.59Z"/></svg>