<?xml version="1.0" encoding="utf-8"?>
<!-- Generator: Adobe Illustrator 22.0.1, SVG Export Plug-In . SVG Version: 6.00 Build 0)  -->
<svg version="1.1" id="Layer_1" xmlns="http://www.w3.org/2000/svg" xmlns:xlink="http://www.w3.org/1999/xlink" x="0px" y="0px"
	 viewBox="0 0 246.1 241.2" style="enable-background:new 0 0 246.1 241.2;" xml:space="preserve">
<style type="text/css">
	.st0{fill:#4178BC;}
	.st1{fill:#FFFFFF;}
</style>
<polygon class="st0" points="123.1,207.7 179,241.2 188.1,178.6 246.1,153.6 203.5,108.1 222.8,47.8 158.5,51.8 123.1,0 87.6,51.8 
	23.3,47.8 42.7,108.1 0,153.6 58,178.6 67.1,241.2 "/>
<g>
	<path class="st1" d="M122.9,193.4l-2.8-7.3c-0.7-0.8-6.4-6.7-29.9-10.5c-20.1-3.3-21.5-19-22.3-27.4l-0.1-1.1
		c-0.6-6.5,1.9-12.6,4.4-18.5c2.8-6.7,5.7-13.7,4.4-21.7c-1.2-6.9-10.1-13.6-13.5-15.7l-2.8-1.7l12.2-23.7l2.9,1
		c0.1,0,8.9,3.1,22.2,2.2c15.8-1,22.7-9.3,22.7-9.4l2.7-3.4l2.7,3.4c0.3,0.3,7.1,8.3,22.7,9.4c13.4,0.9,22.2-2.2,22.3-2.2l2.9-1
		l1.4,2.7l10.8,21l-2.8,1.7c-3.3,2-12.3,8.8-13.5,15.7c-1.4,8,1.6,14.9,4.4,21.7c2.5,5.9,5,12,4.4,18.5l-0.1,1.1
		c-0.8,8.4-2.2,24-22.3,27.4c-23.6,3.9-29.3,9.8-29.9,10.5L122.9,193.4z M126,186.2L126,186.2L126,186.2z M120.1,186.2L120.1,186.2
		L120.1,186.2z M69.4,87.2c4.4,3.2,12.6,10.1,14,18.7c1.7,10-1.8,18.3-4.8,25.6c-2.3,5.6-4.4,10.4-3.9,15.1l0.1,1.1
		c0.8,8.3,1.7,18.7,16.5,21.1c19,3.1,27.8,7.6,31.8,10.7c4-3.1,12.8-7.6,31.8-10.7c14.7-2.4,15.7-12.8,16.5-21.1l0.1-1.1
		c0.5-4.7-1.6-9.5-3.9-15.1c-3.1-7.3-6.5-15.6-4.8-25.6c1.5-8.5,9.7-15.5,14-18.7l-6.5-12.7c-4,1-11.8,2.4-22.1,1.7
		c-13-0.9-21.1-6-25-9.3c-3.9,3.3-12,8.4-25,9.3C87.8,76.8,80,75.4,76,74.4L69.4,87.2z"/>
</g>
</svg>
